<svg width="100" height="100" viewBox="0 0 100 100" fill="none" xmlns="http://www.w3.org/2000/svg">
<rect width="100" height="100" fill="#212121"/>
<g filter="url(#filter0_d_721_18)">
<rect x="20" y="10" width="60" height="80" rx="8" fill="#424242"/>
</g>
<g filter="url(#filter1_d_721_18)">
<rect x="25.5" y="15.5" width="50" height="13" rx="5" fill="#D9D9D9"/>
<rect x="25.5" y="32.5" width="10" height="10" rx="5" fill="#4A89BC"/>
<rect x="38.5" y="32.5" width="10" height="10" rx="5" fill="#EB5380"/>
<rect x="51.5" y="32.5" width="10" height="10" rx="5" fill="#EB5380"/>
<rect x="64.5" y="32.5" width="10" height="10" rx="5" fill="#EB5380"/>
<rect x="25.5" y="46.5" width="10" height="10" rx="5" fill="#E0C8FF"/>
<rect x="38.5" y="46.5" width="10" height="10" rx="5" fill="#E0C8FF"/>
<rect x="51.5" y="46.5" width="10" height="10" rx="5" fill="#E0C8FF"/>
<rect x="64.5" y="46.5" width="10" height="10" rx="5" fill="#EB5380"/>
<rect x="25.5" y="60.5" width="10" height="10" rx="5" fill="#E0C8FF"/>
<rect x="38.5" y="60.5" width="10" height="10" rx="5" fill="#E0C8FF"/>
<rect x="51.5" y="60.5" width="10" height="10" rx="5" fill="#E0C8FF"/>
<rect x="64.5" y="60.5" width="10" height="10" rx="5" fill="#EB5380"/>
<rect x="25.5" y="74.5" width="10" height="10" rx="5" fill="#4A89BC"/>
<rect x="38.5" y="74.5" width="10" height="10" rx="5" fill="#E0C8FF"/>
<rect x="51.5" y="74.5" width="10" height="10" rx="5" fill="#4A89BC"/>
<rect x="64.5" y="74.5" width="10" height="10" rx="5" fill="#473E9E"/>
</g>
<defs>
<filter id="filter0_d_721_18" x="16" y="10" width="68" height="88" filterUnits="userSpaceOnUse" color-interpolation-filters="sRGB">
<feFlood flood-opacity="0" result="BackgroundImageFix"/>
<feColorMatrix in="SourceAlpha" type="matrix" values="0 0 0 0 0 0 0 0 0 0 0 0 0 0 0 0 0 0 127 0" result="hardAlpha"/>
<feOffset dy="4"/>
<feGaussianBlur stdDeviation="2"/>
<feComposite in2="hardAlpha" operator="out"/>
<feColorMatrix type="matrix" values="0 0 0 0 0 0 0 0 0 0 0 0 0 0 0 0 0 0 0.25 0"/>
<feBlend mode="normal" in2="BackgroundImageFix" result="effect1_dropShadow_721_18"/>
<feBlend mode="normal" in="SourceGraphic" in2="effect1_dropShadow_721_18" result="shape"/>
</filter>
<filter id="filter1_d_721_18" x="21.5" y="15.5" width="58" height="77" filterUnits="userSpaceOnUse" color-interpolation-filters="sRGB">
<feFlood flood-opacity="0" result="BackgroundImageFix"/>
<feColorMatrix in="SourceAlpha" type="matrix" values="0 0 0 0 0 0 0 0 0 0 0 0 0 0 0 0 0 0 127 0" result="hardAlpha"/>
<feOffset dy="4"/>
<feGaussianBlur stdDeviation="2"/>
<feComposite in2="hardAlpha" operator="out"/>
<feColorMatrix type="matrix" values="0 0 0 0 0 0 0 0 0 0 0 0 0 0 0 0 0 0 0.25 0"/>
<feBlend mode="normal" in2="BackgroundImageFix" result="effect1_dropShadow_721_18"/>
<feBlend mode="normal" in="SourceGraphic" in2="effect1_dropShadow_721_18" result="shape"/>
</filter>
</defs>
</svg>
